<?xml version="1.0" encoding="UTF-8" standalone="no"?>
<!-- Created with Inkscape (http://www.inkscape.org/) -->

<svg
   xmlns:dc="http://purl.org/dc/elements/1.1/"
   xmlns:cc="http://creativecommons.org/ns#"
   xmlns:rdf="http://www.w3.org/1999/02/22-rdf-syntax-ns#"
   xmlns:svg="http://www.w3.org/2000/svg"
   xmlns="http://www.w3.org/2000/svg"
   xmlns:sodipodi="http://sodipodi.sourceforge.net/DTD/sodipodi-0.dtd"
   xmlns:inkscape="http://www.inkscape.org/namespaces/inkscape"
   version="1.1"
   id="svg4658"
   xml:space="preserve"
   width="4in"
   height="3in"
   viewBox="0 0 384.00001 288.00001"
   sodipodi:docname="avatar.svg"
   inkscape:version="0.92.1 r15371"
   inkscape:export-filename="D:\Users\Astrid\Dropbox\Chalmers\Simulations\microkinetics\pycatkin\docs\_static\avatar\avatar.png"
   inkscape:export-xdpi="600"
   inkscape:export-ydpi="600"><metadata
     id="metadata4664"><rdf:RDF><cc:Work
         rdf:about=""><dc:format>image/svg+xml</dc:format><dc:type
           rdf:resource="http://purl.org/dc/dcmitype/StillImage" /><dc:title></dc:title></cc:Work></rdf:RDF></metadata><defs
     id="defs4662"><clipPath
       clipPathUnits="userSpaceOnUse"
       id="clipPath4678"><path
         d="M 108,108 H 2196 V 2196 H 108 Z"
         id="path4676"
         inkscape:connector-curvature="0" /></clipPath><clipPath
       id="clipPath6518"
       clipPathUnits="userSpaceOnUse"><path
         inkscape:connector-curvature="0"
         id="path6516"
         d="M 108,108 H 2196 V 2196 H 108 Z" /></clipPath></defs><sodipodi:namedview
     pagecolor="#ffffff"
     bordercolor="#666666"
     borderopacity="1"
     objecttolerance="10"
     gridtolerance="10"
     guidetolerance="10"
     inkscape:pageopacity="0"
     inkscape:pageshadow="2"
     inkscape:window-width="2560"
     inkscape:window-height="1377"
     id="namedview4660"
     showgrid="false"
     units="in"
     inkscape:zoom="2.1728801"
     inkscape:cx="158.4426"
     inkscape:cy="122.05553"
     inkscape:window-x="-8"
     inkscape:window-y="-8"
     inkscape:window-maximized="1"
     inkscape:current-layer="g4668" /><g
     id="g4666"
     inkscape:groupmode="layer"
     inkscape:label="ink_ext_XXXXXX"
     transform="matrix(1.3333333,0,0,-1.3333333,0,288.00001)"><g
       id="g4668"
       transform="scale(0.1)"><g
         id="g4672"
         transform="translate(-108,-66.189924)"><g
           id="g4674"
           clip-path="url(#clipPath4678)"><path
             d="m 108,1793.2 242.547,0.83 14.058,3.57 14.063,6.16 14.059,8.5 17.578,13.56 17.574,16.36 21.09,22.68 28.121,34.03 45.699,59.91 42.18,54.05 24.605,28.29 21.094,21.09 17.574,14.74 17.574,11.65 14.063,6.76 14.059,4.25 14.062,1.46 v 0 l 7.031,-1.29 7.032,-3.79 7.027,-6.19 10.547,-13.55 10.547,-18.36 10.543,-22.81 14.062,-36.72 14.059,-43.14 17.578,-61.7 21.09,-83.24 28.121,-121.94 87.879,-391.03 21.089,-80.16 17.579,-58.4 14.058,-40.04 14.063,-33.18 10.545,-19.88 10.54,-15.2 7.04,-7.35 7.02,-5 7.03,-2.55 3.52,-0.33 v 0 l 242.55,0.63 14.06,2.71 14.06,4.67 17.57,8.32 17.58,10.73 21.09,15.58 24.61,21.07 31.63,30.18 84.37,82.21 24.6,20.27 21.09,14.65 17.58,9.81 17.57,7.25 14.07,3.71 14.05,1.66 7.04,-0.26 7.03,-2.55 7.02,-5 7.04,-7.35 10.54,-15.2 10.55,-19.88 10.54,-24.21 14.06,-38.4 14.06,-44.63 17.58,-63.24 21.09,-84.669 28.12,-123.102 80.85,-360.957 21.09,-81.742 17.58,-60.082 14.06,-41.617 14.06,-34.977 10.54,-21.363 10.55,-16.797 10.55,-11.875 7.02,-5.004 7.03,-2.551 3.52,-0.324 v 0 h 232 v 0"
             style="fill:none;stroke:#0c0a0a;stroke-width:35;stroke-linecap:square;stroke-linejoin:round;stroke-miterlimit:10;stroke-dasharray:none;stroke-opacity:1"
             id="path4680"
             inkscape:connector-curvature="0" /><path
             d="m 174,1743.2 h 100 v 100 H 174 Z"
             style="fill:#00ced1;fill-opacity:1;fill-rule:nonzero;stroke:none"
             id="path4682"
             inkscape:connector-curvature="0" /><path
             d="m 174,1743.2 h 100 v 100 H 174 Z"
             style="fill:none;stroke:#00ced1;stroke-width:10;stroke-linecap:butt;stroke-linejoin:miter;stroke-miterlimit:10;stroke-dasharray:none;stroke-opacity:1"
             id="path4684"
             inkscape:connector-curvature="0" /><path
             d="m 638,2051.09 h 100 v 100 H 638 Z"
             style="fill:#ff6347;fill-opacity:1;fill-rule:nonzero;stroke:none"
             id="path4686"
             inkscape:connector-curvature="0" /><path
             d="m 638,2051.09 h 100 v 100 H 638 Z"
             style="fill:none;stroke:#ff6347;stroke-width:10;stroke-linecap:butt;stroke-linejoin:miter;stroke-miterlimit:10;stroke-dasharray:none;stroke-opacity:1"
             id="path4688"
             inkscape:connector-curvature="0" /><path
             d="m 1102,985.238 h 100 v 100 h -100 z"
             style="fill:#00ced1;fill-opacity:1;fill-rule:nonzero;stroke:none"
             id="path4690"
             inkscape:connector-curvature="0" /><path
             d="m 1102,985.238 h 100 v 100 h -100 z"
             style="fill:none;stroke:#00ced1;stroke-width:10;stroke-linecap:butt;stroke-linejoin:miter;stroke-miterlimit:10;stroke-dasharray:none;stroke-opacity:1"
             id="path4692"
             inkscape:connector-curvature="0" /><path
             d="m 1566,1218.76 h 100 v 100 h -100 z"
             style="fill:#ff6347;fill-opacity:1;fill-rule:nonzero;stroke:none"
             id="path4694"
             inkscape:connector-curvature="0" /><path
             d="m 1566,1218.76 h 100 v 100 h -100 z"
             style="fill:none;stroke:#ff6347;stroke-width:10;stroke-linecap:butt;stroke-linejoin:miter;stroke-miterlimit:10;stroke-dasharray:none;stroke-opacity:1"
             id="path4696"
             inkscape:connector-curvature="0" /><path
             d="m 2030,152.91 h 100 v 100 h -100 z"
             style="fill:#00ced1;fill-opacity:1;fill-rule:nonzero;stroke:none"
             id="path4698"
             inkscape:connector-curvature="0" /><path
             d="m 2030,152.91 h 100 v 100 h -100 z"
             style="fill:none;stroke:#00ced1;stroke-width:10;stroke-linecap:butt;stroke-linejoin:miter;stroke-miterlimit:10;stroke-dasharray:none;stroke-opacity:1"
             id="path4700"
             inkscape:connector-curvature="0" /></g></g><g
         id="g24"
         transform="matrix(-0.0706506,0,0,0.0706506,2889.2111,222.53072)"><path
           d="m 3055.1696,1259.5821 c 23.56,-3.48 47.16,-6.46 70.79,-9.24 -23.63,2.78 -47.23,5.76 -70.79,9.24 -3.08,0.45 -6.1,0.81 -9.1,1.18 3,-0.37 6.02,-0.73 9.1,-1.18 z m 1560.1,2041.78 c 0.41,1.02 0.82,2.09 1.27,3.11 -0.45,-1.02 -0.86,-2.09 -1.27,-3.11 z m 1366.63,-324.07 c 2.78,-8.54 5.35,-16.67 7.72,-24.4 -2.37,7.73 -4.94,15.86 -7.72,24.4 z m -2333.56,3697.58 c -20.58,9.08 -41.88,19.21 -63.29,29.47 21.41,-10.26 42.71,-20.39 63.29,-29.47 z m 2238.66,-301.39 v 0 c -4.7,-0.04 -9.45,0 -14.19,-0.08 4.74,0.04 9.44,0.04 14.19,0.08 z m 33.31,0.17 c -11.08,0 -22.16,-0.08 -33.23,-0.17 v 0 c 11.07,0.04 22.15,0.17 33.23,0.17 z m 562.27,-25.71 v 0 c -27.02,0.69 -54.08,1.51 -81.09,2.37 27.01,-0.86 54.07,-1.68 81.09,-2.37 z m 6628.8204,1410.44 c -3,-0.08 -6.1,-0.08 -9.1,-0.08 v 0 c 3,0 6.1,0 9.1,0.08 z m 437.2,211.14 v 0 c -23.2,-15.32 -46.6,-30.57 -70.1,-45.61 23.5,15.04 46.9,30.29 70.1,45.61 z m 1211.6,-852.5 c -10.4,6.7 -20.6,13.53 -30.8,20.48 10.2,-6.95 20.4,-13.78 30.8,-20.48 z m 753.4,-79.04 c 0.1,0 0.1,0.04 0.2,0.08 -0.1,-0.04 -0.1,-0.08 -0.2,-0.08 -2.4,-3.76 -5,-7.36 -7.5,-10.84 2.5,3.48 5.1,7.08 7.5,10.84 z m 55.9,21.09 c 6,1.71 12.1,3.27 18.1,4.65 0.5,0.13 1.6,0.33 2.8,0.58 -1.2,-0.25 -2.3,-0.45 -2.8,-0.58 -6,-1.38 -12.1,-2.94 -18.1,-4.65 -3.9,-1.11 -7.7,-2.33 -11.6,-3.56 3.9,1.23 7.7,2.45 11.6,3.56 z m 26.4,6.33 c 13.4,2.29 26.9,3.92 40.4,4.91 -13.5,-0.99 -27,-2.62 -40.4,-4.91 -0.3,-0.08 -0.9,-0.2 -1.6,-0.33 0.7,0.13 1.3,0.25 1.6,0.33 z m 191.4,-45.82 c 0.1,-0.04 0.2,-0.08 0.3,-0.08 -22.9,8.59 -45.8,17.13 -68.8,25.75 22.9,-8.58 45.7,-17.12 68.5,-25.67 z m -1113.7,521.16 c -7.2,-1.96 -14.3,-3.76 -21.2,-5.27 6.9,1.51 14,3.31 21.2,5.27 z m 456.3,102.87 v 0 c -8.8,-6.05 -17.1,-11.81 -25.1,-17.29 8,5.48 16.3,11.24 25.1,17.29 z m 838.6,192.51 c -2.1,5.03 -4.1,9.89 -6.3,14.63 2.2,-4.74 4.2,-9.6 6.3,-14.63 4,-9.77 6.7,-18.11 8.2,-26.04 -1.5,7.93 -4.2,16.27 -8.2,26.04 z m -41.3,75.08 c -5.4,8.13 -11.3,15.82 -17.4,22.89 6.1,-7.07 12,-14.76 17.4,-22.89 2.3,-3.31 4.4,-6.54 6.5,-9.73 -2.1,3.19 -4.2,6.42 -6.5,9.73 z m -5131.6,4173.5999 c 11.8,-23.2 23.8,-46.5 35.8,-69.9 -12,23.4 -24,46.7 -35.8,69.9 z m -21.5,42 c -0.2,0.2 -0.3,0.4 -0.4,0.7 0.1,-0.3 0.2,-0.5 0.4,-0.7 1.2,-2.4 2.4,-4.8 3.6,-7.1 -1.2,2.3 -2.4,4.7 -3.6,7.1 z M 2791.4796,6812.9021 v 0 c 14.28,-4.83 30.22,-11.61 47.34,-19.83 -17.12,8.22 -33.06,15 -47.34,19.83 z m 517.44,-1402.19 c 0.01,0 0.02,0 0.03,0 5.54,-0.74 11.1,-1.35 16.72,-1.92 0.61,-2.54 1.2,-5.03 1.78,-7.44 -0.58,2.41 -1.17,4.9 -1.78,7.44 -5.63,0.57 -11.2,1.23 -16.75,1.92 z m -13.58,1.92 c 2.99,-0.45 5.97,-0.94 8.99,-1.35 0.01,0 0.02,0 0.03,0 -3.03,0.41 -6.02,0.9 -9.02,1.35 z m -714.52,-4250.65 c 66.75,173.58 179.79,276.61 391.27,287.2 277.86,13.9 419.3,8.46 592.67,230.07 270.2,345.4 527.44,722.57 765.43,1089.11 256.6,395.18 209.96,844.4 231.58,1292.4 4.82,100.26 -2.49,405.81 -4.7,526.22 -70.71,42.71 -158.7,184.82 -244.12,236.4 -59.76,-32.86 -111.59,-152.53 -164.88,-184.53 -119.17,-71.57 -260.89,-185.8 -414.59,-146.85 -36.53,9.27 -109.13,32.65 -155.62,37.6 -75.69,8.01 -167.91,-19.29 -242.78,-5.48 -85.28,15.7 -154.24,71.24 -235.9,99.97 -5.74,0.66 -11.45,1.43 -17.13,2.29 -80.88,0 -158.44,38.3 -212.8,99.04 -22.2,24.8 -10.47,67.92 14.19,85.54 0.68,0.49 1.37,0.86 2.05,1.31 2.17,5.6 4.18,11.28 5.99,17.04 18.87,60.29 24.14,122.62 14.51,185.31 -1.44,9.4 30.35,219.2 -108.33,370.79 -110.06,120.33 -124.27,264.4 -115.79,412.93 3.78,66.05 -2.17,132.95 -3.72,199.94 -270.66,91.47 -449.65,270.86 -595.68,514.62 252.73,-7.61 489.92,-14.8 763.16,-23.01 -60.99,60.28 -100.87,96.25 -136.37,135.69 -42.55,47.25 -88.08,94.05 -120.28,147.22 -53.28,88 -127.09,141.42 -17.59,132.63 193.57,-15.49 405.26,41.2 598.09,20.19 120.19,-13.08 285.72,-56.65 395.38,-20.15 38.06,12.67 114.7,11.12 152.63,16.51 249.95,35.56 568.64,8.91 850.41,-75 312.38,-93.06 615.86,-219.03 931.63,-297.01 10.75,0.24 21.54,0.65 32.41,1.39 153.72,10.38 294.81,77.04 448.57,95.96 310.5,38.22 611.2,-45.28 918.18,-50.96 329.31,-6.09 615.41,125.35 894.36,290.02 862.63,509.35 1568.37,1203.22 2392.8504,1760.67 390.9,264.36 701.7,336.5 701.7,336.54 436.5,472.11 537.2,1126.6099 372.9,1735.5099 -182.8,677 -621.6,1247.7 -856,1906.5 -152.5,429.1 -250.3,1041.2 200.6,1360.2 251,177.5 552.1,-34.8 611.3,-271.9 81.8,-328 -66.3,-674.2 25,-1003.3 52.6,-190.1 176.8,-352.9 283.1,-521.1 306.6,-484.8 467.9,-1051.8 490.6,-1623.3 5.7,-142.5 -190.4,-1583.0199 -235.6,-1567.1199 42.9,-15.08 84.2,-35.97 123.1,-59.43 66.6,-40.21 130.1,-86.28 192.7,-132.42 66.4,-48.92 131.3,-99.93 193.1,-154.49 36.5,-25.43 68.1,-57.76 98.1,-92.34 50.3,-50.84 97.6,-104.67 140.2,-161.85 80.1,-87.46 158.8,-176.48 244.7,-258.39 56.6,-53.91 124.9,-100.46 194.9,-136.3 156.1,-79.99 280.5,-43.08 365.8,93.63 30,48.19 60.6,100.02 104.4,134.8 207.4,164.71 360.2,104.79 582.9,-94.17 87.8,-78.35 240.8,-277.4 240.8,-277.4 0,0 403.7,46.35 480.7,37.56 139.4,-15.9 242.3,38.67 327.5,133.08 41.5,45.94 89.1,87.1 137.5,126.25 77.7,62.78 173.8,73.49 276,64.79 165.3,-14.02 314.2,-83.63 455.6,-167.82 50.4,-30 94,-82.81 125,-133.41 82.6,-134.79 56.4,-233.78 -78.3,-302 -387.9,-196.55 -798.9,-318.47 -1237.4,-307.97 163,-125.39 384.5,-171.37 584,-121.3 105.3,26.44 207.9,78.31 316.2,69.8 108.2,-8.5 201.6,-75.81 288.6,-140.68 81.6,-60.77 163.3,-121.59 244.9,-182.41 31.5,-23.5 64.2,-48.31 81.8,-83.5 37.7,-75.45 -7.1,-165.49 -58.5,-232.39 -144.4,-188.1 -329.9,-332.94 -575.9,-314.51 -199.1,14.92 -386,98.42 -581,141.09 -315.6,69.03 -593.3,81.54 -886.6,227.9 -179.5,89.63 -463.5,293.09 -607.8,38.87 -31.3,-55.02 -55.2,-114.4 -88.3,-168.31 -306.7,-500.56 -588.1,-878.54 -1606.7,-882.38 -431.9,-1.64 -929,150.94 -1351,43.24 -450.8,-115.01 -755.8204,-544.62 -1063.4604,-859.24 -485.19,-496.23 -1026.37,-1054.41 -1655.63,-1364.96 -185.89,-91.75 -383.01,-157.27 -584.71,-204.15 -213.35,-49.58 -431.53,-75.86 -650.23,-85.22 -96.83,-162.58 -185.56,-322.27 -310.54,-448.85 -166.31,-168.39 -298.78,-360.12 -454.13,-535.67 -178.94,-202.23 -340.09,-421.01 -496.06,-642.29 -70.46,-100.02 -106.39,-223.08 -161.65,-334.05 -98.38,-197.65 -191.32,-398.99002 -302.49,-590.35002 -188.13,-323.78 -507.34,-227.78 -832.48,-265.17 -68.6,-7.89 -282.68,103.77 -293.73,171.37 -22.24,136.02 28.92,310.38 128.77,350.68 788.87,318.43002 684.32,607.03002 775.55,845.19002 -3.92,3.59 -7.81,7.15 -11.73,10.7 -55.46,-38.62 -111.34,-76.84 -167.62,-114.56 -460.38,-307.4 -640.48,-676.51002 -714.26,-719.10002 -110.44,-63.76 -226.17,-124.33 -348.25,-163.56 -73.05,-23.51 -168.11,-22.61 -243.14,0.57 -205.87,63.51 -214.64,35.31 -413.86,117.99 -149.43,62.01 -180.38,144.69002 -126.03,286.03002"
           style="fill:#0c0a0a;fill-opacity:1;fill-rule:nonzero;stroke:none"
           id="path26-0"
           inkscape:connector-curvature="0" /></g><text
         xml:space="preserve"
         style="font-style:normal;font-variant:normal;font-weight:normal;font-stretch:normal;font-size:400px;line-height:1.25;font-family:Arial;-inkscape-font-specification:Arial;letter-spacing:0px;word-spacing:0px;fill:#000000;fill-opacity:1;stroke:none;stroke-width:7.5"
         x="2116.6289"
         y="-103.27758"
         id="text4572"
         transform="scale(1,-1)"><tspan
           sodipodi:role="line"
           id="tspan4570"
           x="2116.6289"
           y="-103.27758"
           style="font-style:normal;font-variant:normal;font-weight:bold;font-stretch:normal;font-size:160px;font-family:'Courier New';-inkscape-font-specification:'Courier New Bold';stroke-width:7.5">PyCatKin</tspan></text>
</g></g></svg>